<mxfile host="app.diagrams.net" modified="2023-04-12T02:32:52.347Z" agent="Mozilla/5.0 (Windows NT 10.0; Win64; x64) AppleWebKit/537.36 (KHTML, like Gecko) Chrome/111.0.0.0 Safari/537.36" etag="lvIdqk0_icfLss0WcAVg" version="21.1.6" type="github">
  <diagram name="第 1 页" id="0T9Uan7fmgxEul8o7l3K">
    <mxGraphModel dx="1114" dy="594" grid="1" gridSize="10" guides="1" tooltips="1" connect="1" arrows="1" fold="1" page="1" pageScale="1" pageWidth="827" pageHeight="1169" math="0" shadow="0">
      <root>
        <mxCell id="0" />
        <mxCell id="1" parent="0" />
        <mxCell id="veIj2YwSrqPdFAF7lRwi-49" style="edgeStyle=none;shape=link;rounded=1;orthogonalLoop=1;jettySize=auto;html=1;exitX=0.5;exitY=1;exitDx=0;exitDy=0;entryX=0.203;entryY=0.65;entryDx=0;entryDy=0;entryPerimeter=0;comic=0;" edge="1" parent="1" source="veIj2YwSrqPdFAF7lRwi-1" target="veIj2YwSrqPdFAF7lRwi-10">
          <mxGeometry relative="1" as="geometry" />
        </mxCell>
        <mxCell id="veIj2YwSrqPdFAF7lRwi-1" value="CPU" style="whiteSpace=wrap;html=1;aspect=fixed;rounded=1;comic=0;" vertex="1" parent="1">
          <mxGeometry x="240" y="150" width="50" height="50" as="geometry" />
        </mxCell>
        <mxCell id="veIj2YwSrqPdFAF7lRwi-50" style="edgeStyle=none;shape=link;rounded=1;orthogonalLoop=1;jettySize=auto;html=1;exitX=0.5;exitY=1;exitDx=0;exitDy=0;entryX=0.703;entryY=0.7;entryDx=0;entryDy=0;entryPerimeter=0;comic=0;" edge="1" parent="1" source="veIj2YwSrqPdFAF7lRwi-2" target="veIj2YwSrqPdFAF7lRwi-10">
          <mxGeometry relative="1" as="geometry" />
        </mxCell>
        <mxCell id="veIj2YwSrqPdFAF7lRwi-2" value="内存" style="whiteSpace=wrap;html=1;aspect=fixed;rounded=1;comic=0;" vertex="1" parent="1">
          <mxGeometry x="400" y="150" width="50" height="50" as="geometry" />
        </mxCell>
        <mxCell id="veIj2YwSrqPdFAF7lRwi-20" style="edgeStyle=orthogonalEdgeStyle;shape=link;rounded=1;orthogonalLoop=1;jettySize=auto;html=1;exitX=0.5;exitY=0;exitDx=0;exitDy=0;entryX=0.703;entryY=0.6;entryDx=0;entryDy=0;entryPerimeter=0;width=2;comic=0;" edge="1" parent="1" source="veIj2YwSrqPdFAF7lRwi-3" target="veIj2YwSrqPdFAF7lRwi-11">
          <mxGeometry relative="1" as="geometry" />
        </mxCell>
        <mxCell id="veIj2YwSrqPdFAF7lRwi-3" value="显卡" style="whiteSpace=wrap;html=1;aspect=fixed;rounded=1;comic=0;" vertex="1" parent="1">
          <mxGeometry x="400" y="330" width="50" height="50" as="geometry" />
        </mxCell>
        <mxCell id="veIj2YwSrqPdFAF7lRwi-51" style="edgeStyle=none;shape=link;rounded=1;orthogonalLoop=1;jettySize=auto;html=1;exitX=0.5;exitY=0;exitDx=0;exitDy=13.5;exitPerimeter=0;entryX=0.5;entryY=0;entryDx=0;entryDy=3.25;entryPerimeter=0;comic=0;" edge="1" parent="1" source="veIj2YwSrqPdFAF7lRwi-10" target="veIj2YwSrqPdFAF7lRwi-11">
          <mxGeometry relative="1" as="geometry" />
        </mxCell>
        <mxCell id="veIj2YwSrqPdFAF7lRwi-10" value="" style="html=1;shadow=0;dashed=0;align=center;verticalAlign=middle;shape=mxgraph.arrows2.twoWayArrow;dy=0.65;dx=22;fillColor=#080808;rounded=1;comic=0;" vertex="1" parent="1">
          <mxGeometry x="200" y="220" width="320" height="20" as="geometry" />
        </mxCell>
        <mxCell id="veIj2YwSrqPdFAF7lRwi-43" style="edgeStyle=none;shape=link;rounded=1;orthogonalLoop=1;jettySize=auto;html=1;exitX=0.5;exitY=0;exitDx=0;exitDy=6.75;exitPerimeter=0;entryX=0.5;entryY=0;entryDx=0;entryDy=1.625;entryPerimeter=0;width=1;comic=0;" edge="1" parent="1" source="veIj2YwSrqPdFAF7lRwi-11" target="veIj2YwSrqPdFAF7lRwi-12">
          <mxGeometry relative="1" as="geometry" />
        </mxCell>
        <mxCell id="veIj2YwSrqPdFAF7lRwi-11" value="" style="html=1;shadow=0;dashed=0;align=center;verticalAlign=middle;shape=mxgraph.arrows2.twoWayArrow;dy=0.65;dx=22;fillColor=#080808;rounded=1;comic=0;" vertex="1" parent="1">
          <mxGeometry x="200" y="280" width="320" height="10" as="geometry" />
        </mxCell>
        <mxCell id="veIj2YwSrqPdFAF7lRwi-12" value="" style="html=1;shadow=0;dashed=0;align=center;verticalAlign=middle;shape=mxgraph.arrows2.twoWayArrow;dy=0.65;dx=22;strokeWidth=1;fillColor=#080808;rounded=1;comic=0;" vertex="1" parent="1">
          <mxGeometry x="200" y="420" width="320" height="5" as="geometry" />
        </mxCell>
        <mxCell id="veIj2YwSrqPdFAF7lRwi-57" style="edgeStyle=none;shape=link;rounded=1;orthogonalLoop=1;jettySize=auto;html=1;exitX=0.5;exitY=0;exitDx=0;exitDy=0;entryX=0.359;entryY=0.6;entryDx=0;entryDy=0;entryPerimeter=0;width=1;comic=0;" edge="1" parent="1" source="veIj2YwSrqPdFAF7lRwi-29" target="veIj2YwSrqPdFAF7lRwi-12">
          <mxGeometry relative="1" as="geometry" />
        </mxCell>
        <mxCell id="veIj2YwSrqPdFAF7lRwi-29" value="" style="shape=datastore;whiteSpace=wrap;html=1;strokeWidth=2;rounded=1;comic=0;" vertex="1" parent="1">
          <mxGeometry x="300" y="450" width="30" height="40" as="geometry" />
        </mxCell>
        <mxCell id="veIj2YwSrqPdFAF7lRwi-60" style="edgeStyle=none;shape=link;rounded=1;orthogonalLoop=1;jettySize=auto;html=1;exitX=0.5;exitY=0;exitDx=0;exitDy=0;entryX=0.547;entryY=1;entryDx=0;entryDy=0;entryPerimeter=0;width=1;comic=0;" edge="1" parent="1" source="veIj2YwSrqPdFAF7lRwi-30" target="veIj2YwSrqPdFAF7lRwi-12">
          <mxGeometry relative="1" as="geometry" />
        </mxCell>
        <mxCell id="veIj2YwSrqPdFAF7lRwi-30" value="" style="shape=datastore;whiteSpace=wrap;html=1;strokeWidth=2;rounded=1;comic=0;" vertex="1" parent="1">
          <mxGeometry x="360" y="450" width="30" height="40" as="geometry" />
        </mxCell>
        <mxCell id="veIj2YwSrqPdFAF7lRwi-42" style="edgeStyle=orthogonalEdgeStyle;shape=link;rounded=1;orthogonalLoop=1;jettySize=auto;html=1;exitX=0.5;exitY=0;exitDx=0;exitDy=0;entryX=0.728;entryY=0.6;entryDx=0;entryDy=0;entryPerimeter=0;width=1;comic=0;" edge="1" parent="1" source="veIj2YwSrqPdFAF7lRwi-31" target="veIj2YwSrqPdFAF7lRwi-12">
          <mxGeometry relative="1" as="geometry" />
        </mxCell>
        <mxCell id="veIj2YwSrqPdFAF7lRwi-31" value="" style="shape=datastore;whiteSpace=wrap;html=1;strokeWidth=2;rounded=1;comic=0;" vertex="1" parent="1">
          <mxGeometry x="420" y="450" width="30" height="40" as="geometry" />
        </mxCell>
        <mxCell id="veIj2YwSrqPdFAF7lRwi-55" style="edgeStyle=none;shape=link;rounded=1;orthogonalLoop=1;jettySize=auto;html=1;exitX=0.5;exitY=0;exitDx=0;exitDy=0;entryX=0.172;entryY=0.8;entryDx=0;entryDy=0;entryPerimeter=0;width=1;comic=0;" edge="1" parent="1" source="veIj2YwSrqPdFAF7lRwi-35" target="veIj2YwSrqPdFAF7lRwi-12">
          <mxGeometry relative="1" as="geometry" />
        </mxCell>
        <mxCell id="veIj2YwSrqPdFAF7lRwi-35" value="" style="shape=datastore;whiteSpace=wrap;html=1;strokeWidth=2;rounded=1;comic=0;" vertex="1" parent="1">
          <mxGeometry x="240" y="450" width="30" height="40" as="geometry" />
        </mxCell>
        <mxCell id="veIj2YwSrqPdFAF7lRwi-61" value="&lt;font style=&quot;font-size: 17px;&quot;&gt;&lt;span&gt;内存总线(专有的)&lt;/span&gt;&lt;/font&gt;" style="text;html=1;align=center;verticalAlign=middle;resizable=0;points=[];autosize=1;strokeColor=none;fillColor=none;fontStyle=0;comic=0;" vertex="1" parent="1">
          <mxGeometry x="515" y="215" width="150" height="30" as="geometry" />
        </mxCell>
        <mxCell id="veIj2YwSrqPdFAF7lRwi-62" value="&lt;font style=&quot;font-size: 17px;&quot;&gt;&lt;span&gt;外设IO总线&lt;br&gt;(如SCSI/SATA/USB)&lt;/span&gt;&lt;/font&gt;" style="text;html=1;align=center;verticalAlign=middle;resizable=0;points=[];autosize=1;strokeColor=none;fillColor=none;fontStyle=0;comic=0;" vertex="1" parent="1">
          <mxGeometry x="480" y="410" width="180" height="50" as="geometry" />
        </mxCell>
        <mxCell id="veIj2YwSrqPdFAF7lRwi-63" value="&lt;font style=&quot;font-size: 17px;&quot;&gt;&lt;span&gt;通用IO总线(如PCI)&lt;/span&gt;&lt;/font&gt;" style="text;html=1;align=center;verticalAlign=middle;resizable=0;points=[];autosize=1;strokeColor=none;fillColor=none;fontStyle=0;comic=0;" vertex="1" parent="1">
          <mxGeometry x="505" y="270" width="170" height="30" as="geometry" />
        </mxCell>
      </root>
    </mxGraphModel>
  </diagram>
</mxfile>
